<svg width="12" height="16" viewBox="0 0 12 16" fill="none" xmlns="http://www.w3.org/2000/svg">
<path d="M0 2.00003C0 1.46959 0.210714 0.960875 0.585786 0.585796C0.960859 0.210717 1.46957 0 2 0L10 0C10.5304 0 11.0391 0.210717 11.4142 0.585796C11.7893 0.960875 12 1.46959 12 2.00003V15.5003C12 15.5907 11.9754 15.6794 11.9289 15.757C11.8824 15.8346 11.8157 15.8981 11.736 15.9408C11.6563 15.9835 11.5664 16.0038 11.4761 15.9994C11.3858 15.9951 11.2983 15.9664 11.223 15.9163L6 13.1012L0.777 15.9163C0.701705 15.9664 0.61423 15.9951 0.523891 15.9994C0.433553 16.0038 0.343733 15.9835 0.263999 15.9408C0.184266 15.8981 0.117604 15.8346 0.0711141 15.757C0.024624 15.6794 4.67204e-05 15.5907 0 15.5003V2.00003ZM2 1.00002C1.73478 1.00002 1.48043 1.10537 1.29289 1.29291C1.10536 1.48045 1 1.73481 1 2.00003V14.5662L5.723 12.0842C5.80506 12.0296 5.90143 12.0005 6 12.0005C6.09857 12.0005 6.19494 12.0296 6.277 12.0842L11 14.5662V2.00003C11 1.73481 10.8946 1.48045 10.7071 1.29291C10.5196 1.10537 10.2652 1.00002 10 1.00002H2Z" fill="white"/>
</svg>
