<svg width="20" height="20" viewBox="0 0 20 20" fill="none" xmlns="http://www.w3.org/2000/svg">
<g clip-path="url(#clip0_127_25)">
<path d="M18.7188 6.65614C15.7501 2.90614 10.5938 4.65614 10.5938 4.65614C9.87505 5.43739 9.1563 6.28114 8.43755 7.18739C7.9688 7.03114 7.56255 7.65614 7.81255 7.99989C7.1563 8.87489 6.4688 9.65614 5.7813 10.4061C5.2188 10.2811 5.0938 10.7811 5.1563 11.0936C4.68755 11.5936 4.2188 12.0936 3.7813 12.5311C3.7813 12.5311 -0.406199 18.1249 7.68755 17.6249C8.0313 17.4374 8.4063 17.2186 8.75005 16.9999C9.18755 17.5311 9.6563 16.8124 9.5938 16.4374C10.1563 16.0624 10.7501 15.6561 11.3751 15.1874C11.6251 15.2499 11.9688 15.2499 12.0001 14.7186C12.5001 14.3436 12.9688 13.9374 13.4688 13.5311C14.0938 12.9999 14.6563 12.4686 15.1876 11.9374C15.5313 11.9686 16.0938 11.8749 16.0001 11.0311C16.7188 10.1874 17.3126 9.34364 17.8126 8.49989C18.0626 8.46864 18.5313 8.31239 18.2188 7.78114C18.3751 7.40614 18.5626 7.03114 18.7188 6.65614Z" fill="#75A843"/>
<path opacity="0.8" d="M12.4688 10.4688C12.0313 10.8438 11.1563 10.6875 10.75 11.0312C9.34375 12.25 9.46875 13.125 9.21875 13.4063C8.96875 13.6875 8.1875 13.3438 8.0625 14.6875C8.375 14.0938 9.0625 14.0625 9.40625 13.4063C9.96875 12.3125 11.7188 11.9375 12.4688 10.4688Z" fill="#C7E755"/>
<path d="M4.18753 12.125C3.71878 12.5938 3.28128 13.0625 2.90628 13.5C2.46878 13.2813 2.00003 13.9062 2.09378 14.4688C1.31253 15.4375 0.843784 16.3438 0.875034 17.25C0.531284 17.7813 0.562534 18.2188 1.28128 18.5C1.78128 19.2813 2.78128 19.4688 4.12503 19.1562C4.37503 19.375 4.81253 19.6562 5.15628 18.8438C6.09378 18.5 7.12503 18 8.25003 17.3438C7.84378 16.75 4.37503 18.5 6.62503 16.7813C9.28128 14.7813 3.50003 17.7188 5.96878 15.4062C8.43753 13.0938 2.65628 16.6875 4.50003 14.9063C6.34378 13.0938 5.12503 13.2812 3.68753 14.0937C2.59378 14.6875 3.56253 13.0625 4.18753 12.125Z" fill="#558730"/>
<path d="M18.1875 0.968717C16.7812 0.156217 14.9688 0.812467 13.0312 2.37497C12.5625 2.12497 12.125 2.37497 11.9375 3.34372C11.9062 3.37497 10.8437 4.40622 10.3437 4.96872C10.3437 4.96872 10.4688 5.34372 10.4688 5.46872C10.375 5.99997 10.0937 6.49997 9.78125 6.93747C9.46875 7.37497 9.125 7.78122 8.78125 8.15622C8.4375 8.49997 5.75 12.0312 5.65625 12.125C5.84375 12.1875 6.21875 12.5 7.34375 10.4375C7.53125 10.0937 8.09375 9.96872 8.34375 9.59372C8.625 9.21872 8.625 8.62497 8.875 8.18747C9.125 7.74997 9.8125 7.62497 10.125 7.18747C10.4375 6.78122 10.75 5.65622 11.125 5.28122C11.875 4.53122 12.0938 4.68747 12.0312 5.18747C11.875 5.93747 13.2187 4.24997 13 5.31247C12.8125 6.28122 12 6.90622 11.6562 7.40622C9.875 9.93747 8.3125 10.375 8.21875 10.8125C7.9375 12.3125 7.03125 12.2187 6.625 13.3437C7.96875 12.9062 7.71875 12.3125 9.15625 11.7187C9.5625 11.5312 9.1875 10.3437 10.9063 9.09372C12 8.28122 11.6563 7.62497 13.25 6.43747C13.5625 6.21872 14.8438 3.99997 14.0625 5.99997C13.7188 6.90622 16.5 4.34372 16.0312 5.37497C14.3125 9.12497 13.75 7.62497 12.6875 10.3125C13.9375 8.49997 14.7812 8.87497 16.125 6.43747C17 4.84372 17.875 6.90622 17.0312 7.90622C15.9375 9.18747 15.625 9.74997 15.25 10.125C14.875 10.5 13.875 10.5625 13 12.5937C14.2812 11.3125 14.2188 12.3125 15.375 10.3125C16.7812 7.93747 17.9375 8.40622 18.4688 7.28122C19.7812 4.28122 19.6562 1.81247 18.1875 0.968717Z" fill="#C7E755"/>
<path opacity="0.8" d="M14.0938 2.96866C14.1563 3.03116 14.125 3.21866 13.9688 3.34366C13.8438 3.46866 13.6563 3.53116 13.5938 3.46866C13.5313 3.40616 13.5625 3.21866 13.7188 3.09366C13.8438 2.96866 14 2.90616 14.0938 2.96866ZM16.125 1.96866C16.2188 2.06241 16.1563 2.24991 16 2.40616C15.8438 2.56241 15.6563 2.62491 15.5938 2.53116C15.5 2.43741 15.5625 2.24991 15.7188 2.09366C15.875 1.93741 16.0625 1.90616 16.125 1.96866ZM16.1875 3.84366C16.25 3.90616 16.2188 4.03116 16.0938 4.12491C16 4.21866 15.875 4.28116 15.8125 4.21866C15.75 4.15616 15.7813 4.03116 15.9063 3.93741C16 3.81241 16.125 3.78116 16.1875 3.84366ZM18.0313 2.34366C18.125 2.43741 18.0938 2.68741 17.9063 2.84366C17.75 2.99991 17.5313 3.06241 17.4063 2.96866C17.3125 2.87491 17.3438 2.62491 17.5313 2.46866C17.6875 2.28116 17.9063 2.21866 18.0313 2.34366Z" fill="#75A843"/>
</g>
<defs>
<clipPath id="clip0_127_25">
<rect width="20" height="20" fill="white"/>
</clipPath>
</defs>
</svg>
