<svg width="25" height="25" viewBox="0 0 25 25" fill="none" xmlns="http://www.w3.org/2000/svg">
<path d="M12.5013 10.25C12.8624 10.2498 13.22 10.1785 13.5535 10.0402C13.8871 9.90184 14.1902 9.69914 14.4454 9.44366C14.7007 9.18818 14.9031 8.88493 15.0411 8.55122C15.1792 8.21752 15.2502 7.85989 15.25 7.49875C15.2498 7.13762 15.1785 6.78005 15.0402 6.44647C14.9018 6.11288 14.6991 5.80982 14.4437 5.55457C14.1882 5.29933 13.8849 5.0969 13.5512 4.95885C13.2175 4.8208 12.8599 4.74984 12.4987 4.75C11.7694 4.75033 11.0701 5.04038 10.5546 5.55634C10.0391 6.0723 9.74967 6.7719 9.75 7.50125C9.75033 8.2306 10.0404 8.92994 10.5563 9.44543C11.0723 9.96092 11.7719 10.2503 12.5013 10.25ZM12.5013 14.75C11.7716 14.75 11.0718 15.0399 10.5558 15.5558C10.0399 16.0718 9.75 16.7716 9.75 17.5013C9.75 18.2309 10.0399 18.9307 10.5558 19.4467C11.0718 19.9626 11.7716 20.2525 12.5013 20.2525C13.2309 20.2525 13.9307 19.9626 14.4467 19.4467C14.9626 18.9307 15.2525 18.2309 15.2525 17.5013C15.2525 16.7716 14.9626 16.0718 14.4467 15.5558C13.9307 15.0399 13.2309 14.75 12.5013 14.75Z" fill="black"/>
</svg>
