<svg width="20" height="20" viewBox="0 0 20 20" fill="none" xmlns="http://www.w3.org/2000/svg">
<g clip-path="url(#clip0_130_5)">
<path d="M2.06252 0.781359C0.93752 1.81261 1.81252 4.15636 1.81252 4.15636C0.53127 5.62511 0.93752 8.15636 0.93752 8.15636L2.46877 4.00011C2.28127 1.75011 3.12502 1.09386 3.12502 1.09386C3.28127 0.750109 2.46877 0.406358 2.06252 0.781359Z" fill="#6C9925"/>
<path d="M2.37497 1.03125C1.43747 1.875 2.31247 4.09375 2.31247 4.09375C1.03122 5.5625 1.46872 6.90625 1.43747 7.71875L7.65622 4.03125C6.96872 2.21875 3.12497 3.1875 3.12497 3.1875C2.34372 1.84375 3.12497 1.09375 3.12497 1.09375C3.12497 1.09375 2.87497 1.1875 2.37497 1.03125Z" fill="#8CC63E"/>
<path d="M13.4062 14.9999C10.375 12.0937 10.0312 9.74994 10.0312 7.12494C10.0312 5.06244 8.78121 3.59369 7.43746 3.34369C6.74996 3.21869 4.62496 3.12494 5.34371 3.74994C6.03121 4.37494 2.81246 3.87494 2.81246 5.21869C2.81246 6.18744 1.99996 5.03119 1.03121 7.43744C0.0624585 9.93744 0.999958 11.6562 2.40621 13.2187C5.15621 16.2187 11.5937 21.6874 18.25 18.2499C21.6875 16.5312 16.3437 17.8124 13.4062 14.9999Z" fill="#ED4040"/>
</g>
<defs>
<clipPath id="clip0_130_5">
<rect width="20" height="20" fill="white"/>
</clipPath>
</defs>
</svg>
