<svg width="20" height="20" viewBox="0 0 20 20" fill="none" xmlns="http://www.w3.org/2000/svg">
<path d="M8.66564 11.0423L0.626574 17.2985C0.626574 17.2985 0.359386 17.6751 0.584386 18.0017C0.810949 18.3282 1.57345 18.2438 2.8047 17.6907C3.92032 17.1892 6.79532 15.7001 8.19376 14.7688C9.22032 14.0845 10.7859 13.186 11.7516 12.2813C12.1984 11.8642 12.45 11.5438 12.5938 11.0454C13.0344 9.51572 12.2078 8.88135 12.2078 8.88135L8.66564 11.0423Z" fill="#ED6C31"/>
<path d="M1.10776 17.5718C1.99058 17.4171 4.37964 15.9062 5.59683 15.2078C6.81401 14.5093 11.05 11.9453 11.6187 10.9218C11.9359 10.35 12.089 9.29839 11.6031 8.63277C11.1171 7.96714 10.1921 7.44839 8.92495 8.06402C7.7562 8.63277 5.45151 11.7015 4.29839 12.9828C2.73433 14.7218 1.34214 16.3562 0.778076 17.0671C0.585889 17.3078 0.559326 17.4328 0.559326 17.4328C0.559326 17.4328 0.767139 17.6328 1.10776 17.5718Z" fill="#FF8D02"/>
<path d="M12.6251 6.62178C12.5844 6.89678 12.311 7.14834 11.8297 7.57959C11.1969 8.14834 10.9376 8.11553 10.8235 8.40772C10.7532 8.59053 10.8969 8.98115 11.2782 9.39834C11.6188 9.77178 11.9297 9.89209 12.0579 9.86865C12.3688 9.81396 12.5454 9.39834 13.1938 8.8624C13.6751 8.46553 13.8438 8.32647 14.086 8.34365C14.3297 8.35928 14.5376 8.58897 14.8001 8.8624C15.1891 9.26865 15.9501 9.63428 16.7391 9.37022C17.6782 9.05459 17.7157 8.18271 17.8126 8.08584C17.9094 7.98897 18.6297 8.00303 19.0032 7.56396C19.3766 7.12647 19.4844 6.06553 19.3219 5.77334C19.1594 5.48115 11.6501 3.39209 11.6501 3.39209C11.6501 3.39209 11.3313 4.3124 11.5688 4.98271C11.9438 6.0374 12.7001 6.10772 12.6251 6.62178Z" fill="#2F7C31"/>
<path d="M7.34998 10.6796C7.68436 10.9827 8.03123 10.7452 8.25936 10.5171C8.46404 10.3124 8.94061 9.85148 9.15154 9.70617C9.36248 9.56086 9.78436 9.23586 10.0609 9.02492C10.3375 8.81398 10.3062 8.10617 9.68748 8.21398C9.31404 8.27961 8.89217 8.62023 8.42186 9.00929C8.04998 9.31711 7.61092 9.78898 7.43123 10.0312C7.25311 10.2734 7.17186 10.5171 7.34998 10.6796ZM5.93279 12.2249C5.70311 11.9952 5.48279 12.1515 5.17029 12.4921C4.85779 12.8327 4.82029 13.0687 5.00467 13.2452C5.26248 13.4937 5.53748 13.1812 5.75779 12.9327C5.97811 12.6843 6.19061 12.4827 5.93279 12.2249Z" fill="#FFA726"/>
<path d="M9.28901 9.95321C9.12183 10.1001 9.13433 10.3548 9.32808 10.5735C9.56401 10.8392 9.79058 11.0657 9.98901 11.2345C10.1859 11.4017 10.4421 11.3235 10.5312 11.2048C10.6531 11.0423 10.6296 10.8298 10.4531 10.6423C10.3031 10.4845 9.97026 10.1095 9.77339 9.96259C9.6437 9.86728 9.44683 9.81571 9.28901 9.95321ZM6.50933 11.2063C6.26714 11.4173 6.40151 11.7485 6.57808 12.0048C6.7562 12.261 7.04058 12.5954 7.36714 12.3985C7.6937 12.2017 7.4062 11.6595 7.25933 11.4423C7.11089 11.2251 6.81401 10.9392 6.50933 11.2063ZM5.01558 13.8735C4.79839 14.111 4.95776 14.3845 5.21245 14.5735C5.47808 14.7704 5.81401 14.8892 5.9812 14.672C6.14839 14.4548 5.9312 14.1392 5.72495 13.9923C5.5187 13.8438 5.22339 13.647 5.01558 13.8735ZM2.32026 15.5517C2.05933 15.7501 2.24214 16.1235 2.37026 16.2813C2.49839 16.4392 2.73433 16.6563 2.96089 16.4595C3.1812 16.2673 3.05464 15.9704 2.9312 15.7595C2.76401 15.4735 2.48745 15.4235 2.32026 15.5517Z" fill="#ED6C31"/>
<path d="M13.811 2.53918C13.9297 2.51887 15.086 1.15481 16.8391 2.07825C18.5313 2.96887 17.7657 4.40481 17.8282 4.49543C17.8907 4.58606 18.636 4.55793 19.0516 5.18137C19.4969 5.85012 19.3641 6.22043 19.3641 6.22043C19.3641 6.22043 19.2032 6.84543 18.4516 6.99387C17.9766 7.08762 17.4485 6.87356 17.3 6.94856C17.1516 7.02356 17.1875 7.71575 16.3266 7.98293C15.7797 8.15325 14.6782 7.92825 13.9594 7.24543C13.2297 6.55325 13.4782 5.822 13.0297 5.46887C12.4063 4.97825 11.1219 4.2845 11.7422 3.17356C12.4547 1.897 13.6938 2.5595 13.811 2.53918Z" fill="#709921"/>
</svg>
