<svg width="26" height="24" viewBox="0 0 26 24" fill="none" xmlns="http://www.w3.org/2000/svg">
<path d="M25.1874 11.8501C25.5124 17.6251 19.8656 22.5001 13.0406 22.5001C6.21557 22.5001 0.162445 17.3251 0.85307 11.5876C1.82807 3.52506 8.28744 3.00006 13.0406 3.00006C15.9249 3.00006 24.4562 0.675061 25.1874 11.8501Z" fill="#EF4D3C"/>
<path d="M4.46875 10.1249C6.9875 6.5249 11.2938 7.5749 12.4313 6.2249C12.4313 8.8124 14.4625 7.5374 15.4781 8.6999C16.7781 10.1999 17.2656 12.8624 18.8094 13.3874C17.3062 10.4249 19.7438 10.5374 16.3313 6.5624C18.1594 7.6124 19.0937 6.5624 21.5719 7.4999C19.4187 4.3499 16.0469 5.2499 16.0469 5.2499C16.0469 5.2499 18.1594 3.4499 19.9469 4.3874C18.0781 1.8374 12.675 5.0624 12.675 5.0624C12.675 5.0624 10.4406 1.5374 5.64687 5.2499C8.45 4.1999 11.5375 5.2499 11.5375 5.2499C11.5375 5.2499 6.45938 4.0874 4.46875 10.1249Z" fill="#8CC63E"/>
<path d="M4.46875 10.1251C4.46875 10.1251 7.43437 5.06255 12.5531 5.51255C8.04375 3.60005 4.46875 7.65005 4.46875 10.1251Z" fill="#64892F"/>
<path d="M5.64685 5.25003C5.64685 5.25003 9.38435 2.66253 12.675 5.25003C11.7 2.10003 6.7031 3.56253 5.64685 5.25003ZM13.4875 5.58753C18.4437 7.68753 16.7781 10.0875 18.8094 13.4625C17.4281 10.65 20.8406 5.58753 13.4875 5.58753Z" fill="#64892F"/>
<path d="M11.5375 5.25002C11.5375 5.25002 12.675 3.67502 13.0812 1.72502C13.1219 1.46252 14.3406 1.50002 14.3 1.76252C13.8937 4.27502 14.9906 5.66252 14.9906 5.66252C14.9906 5.66252 14.1375 5.92502 13.0812 5.92502C12.025 5.96252 11.5375 5.25002 11.5375 5.25002Z" fill="#64892F"/>
<path d="M13.6907 1.95C14.0272 1.95 14.3 1.84926 14.3 1.725C14.3 1.60074 14.0272 1.5 13.6907 1.5C13.3541 1.5 13.0813 1.60074 13.0813 1.725C13.0813 1.84926 13.3541 1.95 13.6907 1.95Z" fill="#8CC63E"/>
</svg>
